<svg id="eUBxbjGSWHt1" xmlns="http://www.w3.org/2000/svg" xmlns:xlink="http://www.w3.org/1999/xlink" viewBox="0 0 836 836" shape-rendering="geometricPrecision" text-rendering="geometricPrecision" project-id="bb917e6df27b4040ba66cff8295223af" export-id="1c9a241a34ac44daa92bb96c036dcdbc" cached="false"><path d="M0.559888,0.005287c1.107151.166484,2.214302.332968,3.355003.504497C79.920564,12.102234,153.958873,43.80625,212.044384,94.623928c1.336658,1.131217,2.699612,2.231456,4.074107,3.316385c7.659288,6.074462,14.561355,12.738128,21.444549,19.667568c1.898797,1.909536,3.808077,3.808118,5.718611,5.705902c6.991487,6.983934,13.456982,14.101348,19.585438,21.861544.935429,1.103499,1.87793,2.201097,2.831441,3.289009c50.524586,57.940302,81.103926,133.50587,92.279948,208.959602.226738,1.430602.226738,1.430602.458057,2.890105c5.582062,36.467074,5.37558,76.825882-.458057,113.245928-.249726,1.660727-.249726,1.660727-.504497,3.355004-11.592448,76.005686-43.296458,150.044007-94.114127,208.129528-1.131218,1.336659-2.231457,2.699613-3.316384,4.074108-6.074462,7.65929-12.738127,14.561357-19.667566,21.444553-1.909535,1.898797-3.808117,3.808077-5.7059,5.718612-6.983934,6.991488-14.101346,13.456984-21.861541,19.585441-1.103499.935429-2.201096,1.87793-3.289008,2.831441-57.940293,50.524596-133.505847,81.103941-208.959567,92.279965-1.430601.226737-1.430601.226737-2.890104.458056-36.467068,5.582063-76.825869,5.375582-113.245908-.458056-1.660727-.249727-1.660727-.249727-3.355003-.504497-76.005673-11.592451-150.043982-43.296466-208.129493-94.114144-1.336658-1.131218-2.699612-2.231457-4.074107-3.316385-7.659288-6.074463-14.561355-12.738129-21.444549-19.667569-1.898797-1.909535-3.808077-3.808117-5.718611-5.705901-6.991487-6.983935-13.456982-14.101348-19.585438-21.861545-.935429-1.103499-1.87793-2.201096-2.831441-3.289009-50.524586-57.940302-81.103926-133.50587-92.279948-208.959602-.151158-.953734-.302317-1.907468-.458057-2.890104-5.582062-36.467075-5.37558-76.825883.458057-113.245929.166484-1.10715.332968-2.214302.504497-3.355003c11.592448-76.005686,43.296458-150.044008,94.114128-208.129529c1.131217-1.336658,2.231456-2.699613,3.316384-4.074108c6.074461-7.659289,12.738126-14.561357,19.667565-21.444552c1.909535-1.898797,3.808117-3.808078,5.705901-5.718613c6.983933-6.991488,14.101345-13.456984,21.86154-19.58544c1.103499-.93543,2.201096-1.877931,3.289008-2.831442c57.940293-50.524595,133.505847-81.103941,208.959567-92.279964.953734-.151158,1.907468-.302317,2.890104-.458057c36.467068-5.582063,76.825869-5.375581,113.245908.458057Z" transform="matrix(.975395 0 0 1.004304 474.093131 0.719881)" fill="#f3ac5c"/><g transform="matrix(1.000681 0 0 1-.284658-.995367)"><path d="M0,0c1.105854.166289,2.211709.332578,3.351074.503906C79.267733,12.082778,153.219332,43.749658,211.236816,94.507813c1.335093,1.129892,2.696451,2.228842,4.069336,3.3125c7.650318,6.067347,14.544301,12.723208,21.419434,19.644531c1.896573,1.907299,3.803617,3.803657,5.711914,5.699219C249.420799,130.139816,255.878722,137.248893,262,145c.934334,1.102206,1.875731,2.198518,2.828125,3.285156C315.29354,206.157592,345.837067,281.634648,357,357c.226472,1.428926.226472,1.428926.45752,2.886719C363.033045,396.311079,362.826805,436.622614,357,473c-.249434,1.658782-.249434,1.658782-.503906,3.351074-11.578872,75.916659-43.245752,149.868258-94.003906,207.885742-1.129893,1.335093-2.228843,2.696451-3.3125,4.069336-6.067348,7.650318-12.723209,14.544301-19.644532,21.419434-1.907299,1.896573-3.803657,3.803617-5.699218,5.711914C226.860184,722.420799,219.751107,728.878722,212,735c-1.102206.934334-2.198518,1.875731-3.285156,2.828125C150.842408,788.29354,75.365352,818.837067,0,830c-1.428926.226472-1.428926.226472-2.886719.45752C-39.311079,836.033045,-79.622614,835.826805,-116,830c-1.658782-.249434-1.658782-.249434-3.351074-.503906-75.916659-11.578872-149.868258-43.245752-207.885742-94.003906-1.335093-1.129893-2.696451-2.228843-4.069336-3.3125-7.650318-6.067348-14.544301-12.723209-21.419434-19.644532-1.896573-1.907299-3.803617-3.803657-5.711914-5.699218C-365.420799,699.860184,-371.878722,692.751107,-378,685c-.934334-1.102206-1.875731-2.198518-2.828125-3.285156C-431.29354,623.842408,-461.837067,548.365352,-473,473c-.150981-.952617-.301963-1.905234-.45752-2.886719-5.575525-36.42436-5.369285-76.735895.45752-113.113281.166289-1.105854.332578-2.211709.503906-3.351074c11.578872-75.916659,43.245752-149.868258,94.003907-207.885742c1.129892-1.335093,2.228842-2.696451,3.3125-4.069336c6.067347-7.650318,12.723208-14.544301,19.644531-21.419434c1.907299-1.896573,3.803657-3.803617,5.699219-5.711914C-342.860184,107.579201,-335.751107,101.121278,-328,95c1.102206-.934334,2.198518-1.875731,3.285156-2.828125C-266.842408,41.70646,-191.365352,11.162933,-116,0c.952617-.150981,1.905234-.301963,2.886719-.45752C-76.688921,-6.033045,-36.377386,-5.826805,0,0ZM-140.513672,15.406738c-2.785901.664743-5.580561,1.282783-8.376953,1.901856C-160.053394,19.832934,-171.053442,22.78561,-182,26.125c-1.067585.324521-2.135171.649043-3.235107.983398-5.419152,1.693888-10.592568,3.595412-15.744385,5.980469-2.983046,1.345182-6.058766,2.391577-9.145508,3.473633-44.395976,16.190904-86.483936,43.928492-121.074219,75.882813-2.162525,1.972512-4.348952,3.891833-6.566406,5.800781-4.628143,4.037838-8.966322,8.338815-13.296875,12.691406-.76377.759902-1.527539,1.519805-2.314453,2.302734C-374.097108,153.995838,-391.42469,178.225849,-407,203c-.609565.969214-.609565.969214-1.231445,1.958008C-414.101568,214.356991,-419.19943,224.01797,-424,234c-.371572.763931-.743145,1.527861-1.125977,2.314941C-430.184906,246.719516,-434.924391,257.164903,-439,268c-.334995.873018-.66999,1.746035-1.015137,2.645508C-446.203002,286.83504,-451.030245,303.133605,-455,320c-.242344,1.029639-.484687,2.059277-.734375,3.120117C-457.26804,329.725528,-458.674057,336.35002,-460,343c-.154526.744272-.309053,1.488545-.468262,2.255371C-469.507923,389.640209,-467.652029,439.632052,-460,484c.218818,1.291963.437637,2.583926.663086,3.915039c1.931914,11.194514,4.058503,22.298061,7.442383,33.155274.649812,2.128206,1.218979,4.281555,1.738281,6.445312C-436.33867,583.51284,-405.725217,635.130489,-369,679c.430225.521909.860449,1.043818,1.303711,1.581543c7.178393,8.683869,14.877953,16.809404,22.821289,24.793457c1.358712,1.372489,1.358712,1.372489,2.744873,2.772705c5.324118,5.300051,10.816757,10.208431,16.697266,14.884766c2.289283,1.851413,4.462345,3.778399,6.620361,5.780029c6.554109,5.878907,13.704291,11.006669,20.8125,16.1875c1.061785.775129,1.061785.775129,2.14502,1.565918C-286.196992,753.584101,-276.362815,760.073037,-266,766c.972356.558325.972356.558325,1.964355,1.12793c4.006215,2.294015,8.030258,4.553559,12.07129,6.785644c1.28677.711674,2.57168,1.426723,3.854492,2.145508c9.18964,5.142427,18.552904,9.338459,28.335937,13.224121c2.098452.847929,4.15683,1.767903,6.211426,2.716797c20.604673,9.254306,41.947673,15.332139,63.914551,20.376953c2.209198.519812,4.397404,1.083271,6.589355,1.669922c5.525393,1.396098,11.176549,2.122593,16.808594,2.953125c2.224072.332572,4.448031.665901,6.671875,1c1.658057.245566,1.658057.245566,3.349609.496094c2.037187.317964,4.070762.661003,6.097657,1.039062c16.082922,2.992687,32.565277,2.626997,48.862304,2.595215c3.264045-.005364,6.527952-.000018,9.791993.006348c16.274419.006775,32.459668-.1077,48.539062-2.886719c1.051069-.176279,2.102139-.352559,3.185059-.53418C3.501586,818.160645,6.751185,817.584856,10,817c1.009497-.180469,2.018994-.360937,3.059082-.546875C47.381442,810.211683,79.246167,800.426433,111,786c1.027383-.422812,2.054766-.845625,3.113281-1.28125C144.07434,771.925643,171.790428,753.453049,197,733c1.459863-1.169824,1.459863-1.169824,2.949219-2.363281c5.394848-4.35651,10.61203-8.865624,15.734375-13.539063c1.991654-1.803572,4.016625-3.548717,6.066406-5.285156C230.802007,703.921952,239.269302,695.180204,247,686c.86625-.988711,1.7325-1.977422,2.625-2.996094c15.00183-17.15599,28.250308-35.506549,40.12207-54.952148.815988-1.336235,1.635478-2.670339,2.458985-4.001953c10.967341-17.775896,20.526161-36.606758,28.035888-56.103516.540715-1.38827,1.095143-2.771232,1.658692-4.150391c17.976105-44.02202,27.655307-92.300494,27.286865-139.858398-.00823-1.892577-.016202-3.785155-.023926-5.677734-.13829-25.899431-.811199-51.534903-5.733886-77.024903-.4575-2.379516-.896502-4.762106-1.335938-7.145019-1.920105-10.205168-4.363686-20.089129-7.452637-30-.655933-2.138153-1.280038-4.283325-1.895019-6.433594-16.64209-58.149574-47.695141-112.487952-88.96875-156.660156-2.170836-2.327501-4.274384-4.699008-6.339844-7.121094-6.166207-7.113697-12.95627-13.799235-20.125-19.898437-1.834334-1.56786-3.639614-3.15671-5.4375-4.765625C191.372146,90.981133,168.385619,73.71008,144,61c-1.668235-.91381-3.334845-1.830589-5-2.75-.916523-.496289-1.833047-.992578-2.777344-1.503906-1.716863-.930228-3.432733-1.862388-5.141113-2.808106-27.32134-15.10318-56.659031-26.01063-86.964355-33.416015-2.096177-.516793-4.185043-1.05669-6.273438-1.604004C28.629407,16.519958,19.384591,14.602481,10,13c-1.033828-.184336-2.067656-.368672-3.132812-.558594C3.254017,11.857322,-0.362502,11.397152,-4,11c-1.254902-.137527-1.254902-.137527-2.535156-.277832-43.10147-4.428541-91.569619-5.440156-133.978516,4.68457Z" transform="translate(476 3.995383)" fill="#203956"/></g><g transform="matrix(1.797414 0 0 1.797414-337.637799-146.155722)"><path d="M0,0C5.468918,4.393411,10.757,8.674016,14,15c0,.66,0,1.32,0,2c.706406-.159844,1.412813-.319687,2.140625-.484375c11.87472-2.141343,21.471457.40787,31.503906,6.769531C55.206138,28.790207,59.496275,36.031102,62,45c1.414938,10.645724-1.031864,20.217535-7.28125,28.902344C50.175926,79.446654,45.870724,82.780977,39.125,85.25c-3.807076,1.594717-3.807076,1.594717-6.199219,4.765625C32.333789,93.027682,32.155907,95.931608,32,99c-.147143,1.632233-.302788,3.263711-.464844,4.894531-.360315,3.631682-.706539,7.264105-1.039062,10.898438-.417297,4.45361-.875911,8.893608-1.433594,13.332031-.132773,1.075078-.265547,2.150156-.402344,3.257813C27.937385,134.248236,27.435567,135.350279,25,137c-5.636804,1.145327-11.572364-.077493-17.146484-1.080811-12.065519-2.093421-24.01828-2.229566-36.228516-2.231689-.904287-.003223-1.808575-.006445-2.740265-.009766C-43.560521,133.650682,-55.868892,133.918226,-68,137c-1.705655.114242-3.415571.174743-5.125.1875-.868828.01418-1.737656.028359-2.632812.042969C-78,137,-78,137,-80,135c-.363037-1.869141-.363037-1.869141-.527344-4.15625-.102722-1.273876-.102722-1.273876-.207519-2.573486-.100305-1.371281-.100305-1.371281-.202637-2.770264-.651804-7.91078-1.609624-15.663121-3.097412-23.460937C-84.910905,97.282867,-85.119212,92.838936,-85,88c-.580078-.170156-1.160156-.340312-1.757812-.515625-9.374612-2.908295-16.999803-7.871995-21.984375-16.5-5.034084-9.97182-7.47665-19.683533-4.132813-30.796875c4.52794-11.215998,12.023632-17.050825,22.1875-23.1875c7.912884-2.145867,16.668344-1.527458,24.6875,0c.260391-.736055.520781-1.472109.789063-2.230469C-61.190881,5.575274,-52.38107,-0.122492,-44,-5c.654844-.384141,1.309688-.768281,1.984375-1.164062C-28.95389,-12.348158,-11.282991,-7.558058,0,0Z" transform="translate(440 166)" fill="#ed9758"/><path d="M0,0C45.87,0,91.74,0,139,0c0,4.29,0,8.58,0,13c2.083125-.061875,4.16625-.12375,6.3125-.1875c6.157579-.182898,6.157579-.182898,8.582031,1.511719C155.620641,16.94083,155.380865,18.953076,155,22c-1.074219,1.675781-1.074219,1.675781-3,3-3.355469.292969-3.355469.292969-7.1875.1875-1.272305-.02707-2.544609-.054141-3.855469-.082031C139.493301,25.053262,139.493301,25.053262,138,25c.008882.698556.017765,1.397112.026917,2.116837.080375,6.605289.141164,13.21044.180332,19.816109.020814,3.39553.049017,6.790654.094509,10.18595.05205,3.909536.071238,7.818912.088867,11.72876.020645,1.210677.04129,2.421353.062561,3.668717C138.454962,79.222179,138.351969,83.742873,134,89c-5.75183,4.789302-10.666974,5.714513-17.996094,5.567627-.966771.00073-1.933543.00146-2.929611.002212-3.171184-.003462-6.34087-.042259-9.511795-.081558-2.208162-.009333-4.416335-.016447-6.624512-.021438-5.793608-.019032-17.379944-.12352-17.379944-.12352s-11.838104-.074012-17.757263-.099182C50.200244,94.190621,38.600175,94.105354,27,94c2.923782-2.957506,5.760098-5.681288,9.125-8.125c11.778611-8.728574,11.778611-8.728574,18.210938-21.058594.01289-.743789.025781-1.487578.039062-2.253906.028359-.741211.056719-1.482422.085938-2.246094-1.0443-5.248046-5.592626-8.444734-9.585938-11.628906-.960352-.76957-1.920703-1.539141-2.910156-2.332031C40.986445,45.578164,40.008047,44.800859,39,44c-.947461-.766992-1.894922-1.533984-2.871094-2.324219-7.215072-5.939933-7.215072-5.939933-16.191406-7.433593-5.23432,1.350343-8.607592,5.390258-12.273437,9.15625C5,46,5,46,1,48c0-7.59,0-15.18,0-23-4.846661.079018-4.846661.079018-9.692871.180176C-10.462873,25.194812,-12.232725,25.099285,-14,25c-2-2-2-2-2.3125-5.4375C-16,16,-16,16,-14.898437,14.289063C-10.816416,11.517319,-4.668683,12.861326,0,13C0,8.71,0,4.42,0,0Z" transform="translate(345 374)" fill="#1d3756"/><path d="M0,0C1.403746,1.136126,2.800167,2.281389,4.1875,3.4375c.623906.513047,1.247813,1.026094,1.890625,1.554688C7.455549,6.131459,8.82293,7.282863,10.1875,8.4375C9.634366,12.326996,7.90621,14.0642,5.125,16.75c-1.21043,1.171758-1.21043,1.171758-2.445312,2.367188-2.901405,2.701307-5.849637,5.334859-8.863282,7.910156-1.254982,1.086447-2.455163,2.236413-3.628906,3.410156-5.245139,0-8.021535-2.345174-11.9375-5.445312-8.925919-6.72825-19.57733-9.075724-30.5625-8.929688-.872695-.011602-1.745391-.023203-2.644531-.035156-13.243719.058861-24.809736,5.52981-34.605469,14.347656-7.581426,8.064759-13.472119,19.965785-14.25,31.0625-.114727,1.261992-.229453,2.523984-.347656,3.824219-.9029,14.366724,3.91755,26.305173,13.390625,37.136719C-80.044623,113.572892,-67.193115,119.332856,-51.5625,119.75c15.33262-.599321,28.619689-6.588431,39.0625-17.8125.886875-.825,1.77375-1.65,2.6875-2.5c3.420992.272634,5.428051,1.900269,8.003906,4.054688c1.11085.922324,1.11085.922324,2.244141,1.863281.763769.64582,1.527539,1.29164,2.314453,1.957031.767637.638086,1.535273,1.276172,2.326172,1.933594c7.106403,5.935427,7.106403,5.935427,9.111328,8.191406-.214019,5.754735-6.183835,10.251778-10,14-19.277738,16.93731-44.056666,21.582193-69,20-14.165007-1.706141-28.719026-9.431018-40-18-.972598-.727031-.972598-.727031-1.964844-1.46875-11.296357-9.126562-18.214793-21.488028-24.035156-34.53125-.539473-1.179492-.539473-1.179492-1.089844-2.382812-6.825737-17.319035-5.829541-40.661512.935547-57.753907c10.880706-24.995591,29.655347-41.25888,54.638672-51.257812C-51.212978,-21.997287,-20.742086,-15.910319,0,0Z" transform="translate(375.812 318.562)" fill="#1e3857"/><path d="M0,0C5.468918,4.393411,10.757,8.674016,14,15c0,.66,0,1.32,0,2c.706406-.159844,1.412813-.319687,2.140625-.484375c11.87472-2.141343,21.471457.40787,31.503906,6.769531C55.206138,28.790207,59.496275,36.031102,62,45c1.414938,10.645724-1.031864,20.217535-7.28125,28.902344C50.175926,79.446654,45.870724,82.780977,39.125,85.25c-3.807076,1.594717-3.807076,1.594717-6.199219,4.765625C32.333789,93.027682,32.155907,95.931608,32,99c-.147143,1.632233-.302788,3.263711-.464844,4.894531-.360315,3.631682-.706539,7.264105-1.039062,10.898438-.417297,4.45361-.875911,8.893608-1.433594,13.332031-.132773,1.075078-.265547,2.150156-.402344,3.257813C27.937385,134.248236,27.435567,135.350279,25,137c-5.636804,1.145327-11.572364-.077493-17.146484-1.080811-12.065519-2.093421-24.01828-2.229566-36.228516-2.231689-.904287-.003223-1.808575-.006445-2.740265-.009766C-43.560521,133.650682,-55.868892,133.918226,-68,137c-1.705655.114242-3.415571.174743-5.125.1875-.868828.01418-1.737656.028359-2.632812.042969C-78,137,-78,137,-80,135c-.363037-1.869141-.363037-1.869141-.527344-4.15625-.102722-1.273876-.102722-1.273876-.207519-2.573486-.100305-1.371281-.100305-1.371281-.202637-2.770264-.651804-7.91078-1.609624-15.663121-3.097412-23.460937C-84.910905,97.282867,-85.119212,92.838936,-85,88c-.580078-.170156-1.160156-.340312-1.757812-.515625-9.374612-2.908295-16.999803-7.871995-21.984375-16.5-5.034084-9.97182-7.47665-19.683533-4.132813-30.796875c4.52794-11.215998,12.023632-17.050825,22.1875-23.1875c7.912884-2.145867,16.668344-1.527458,24.6875,0c.260391-.736055.520781-1.472109.789063-2.230469C-61.190881,5.575274,-52.38107,-0.122492,-44,-5c.654844-.384141,1.309688-.768281,1.984375-1.164062C-28.95389,-12.348158,-11.282991,-7.558058,0,0ZM-54,16c-3.498806,4.783357-6.069088,9.100737-7,15-.738633-.360937-1.477266-.721875-2.238281-1.09375-7.996854-3.658027-14.813518-5.807581-23.425781-3.054687-7.437981,3.303272-12.996791,8.514453-16.273438,16.023437-2.254224,7.333362-1.771598,13.311319,1.375,20.3125c4.723844,8.557848,10.394959,12.350563,19.625,15.25c2.939063.773438,2.939063.773438,5.9375,1.5625.99,7.59,1.98,15.18,3,23c8.218812-.709845,8.218812-.709845,13-2c.218416-5.812294-.063391-10.978259-1.488281-16.617187C-62.434048,79.978858,-62.681357,75.486159,-63,71c2.64,0,5.28,0,8,0c.459099,2.583199.917286,5.166555,1.375,7.75.126328.710273.252656,1.420547.382813,2.152344C-52.116618,87.261813,-51.061924,93.628454,-50,100c15.84-.33,31.68-.66,48-1c1.2375-5.81625,1.2375-5.81625,2.5-11.75.391553-1.824829.391553-1.824829.791016-3.686523.203027-.964541.406054-1.929082.615234-2.922852.209473-.984521.418945-1.969043.634766-2.983398C3.113473,74.792491,3.113473,74.792491,3,71c2.97.33,5.94.66,9,1-.204961.929414-.409922,1.858828-.621094,2.816406-.269414,1.236211-.538828,2.472422-.816406,3.746094-.266836,1.218164-.533672,2.436328-.808594,3.691406C8.699775,87.491789,7.855166,92.585776,7.9375,97.9375C7.958125,99.278125,7.97875,100.61875,8,102c4.29.33,8.58.66,13,1c1.688468-7.959922,2.907988-15.937698,4-24c.689648-.146953,1.379297-.293906,2.089844-.445312C36.062428,76.413083,43.058153,73.277072,48.5625,65.625C52.271523,58.747203,52.121343,51.521392,51,44c-2.652318-7.728478-7.811661-12.393219-15-16-6.14967-2.373557-11.646908-3.245957-17.859375-.9375-6.244369,2.916152-11.00181,6.360418-15.960937,11.101563C-1.171379,40.986645,-4.906565,42.529073,-9,44c3.028816-7.153484,6.731194-12.254618,12.304688-17.675781c1.955809-2.187881,1.955809-2.187881,1.640625-4.871094C2.062459,13.972,-5.112791,8.659194,-12,5c-15.676932-6.402327-31.064877-1.083217-42,11Z" transform="translate(440 166)" fill="#243a58"/><path d="M0,0C3.820842,1.413114,6.561608,3.691415,9.683594,6.265625c.594902.478242,1.189804.956484,1.802734,1.449219c3.789441,3.056401,7.525916,6.176888,11.259766,9.300781-.51572,4.175344-3.000795,6.716761-5.75,9.6875-.485896.526018-.971792,1.052036-1.472412,1.593994-7.805331,8.159387-17.41412,14.295603-27.777588,18.718506-1.161446.538828-2.322891,1.077656-3.519531,1.632813-15.247255,6.563187-32.500197,6.172541-48.480469,2.367187.268125-.639375.53625-1.27875.8125-1.9375.587812-1.515937.587812-1.515937,1.1875-3.0625.252656-.585234.505312-1.170469.765625-1.773437c2.93279-7.504493,2.951233-15.269301,3.234375-23.226563c1.848515.052207,1.848515.052207,3.734375.105469c18.541866.371625,33.34368-2.87426,47.207031-16.054688c2.033119-1.948443,2.033119-1.948443,3.523438-3.882812C-2.253906,0.015625,-2.253906,0.015625,0,0Z" transform="translate(552.254 416.984)" fill="#1f3857"/><path d="M0,0c.024655,4.396562.042838,8.793087.054932,13.189697.005039,1.496752.011871,2.993499.020507,4.490235.012083,2.147066.017793,4.294068.022217,6.441162.005237,1.293493.010474,2.586987.015869,3.919677C0,31,0,31,-1,32c-2.081539.13536-4.165612.232155-6.25.3125C-19.204795,33.126495,-28.740229,36.295442,-38,44c-.661289.848848-.661289.848848-1.335937,1.714844C-42.089755,47.841618,-44.621373,47.243567,-48,47c-2.590897-.403566-5.123842-.847614-7.6875-1.375-1.399541-.275751-2.799283-.55048-4.199219-.824219-1.033264-.203752-1.033264-.203752-2.087402-.411621C-66.631995,43.494408,-71.317628,42.753791,-76,42c4.128221-14.685287,19.266555-25.791397,32-33c5.476933-3.011163,10.897463-5.149368,16.9375-6.75.812512-.216804,1.625024-.433608,2.462158-.656982C-16.300623,-0.448371,-8.500244,-0.39417,0,0Z" transform="translate(509 302)" fill="#203957"/><path d="M0,0c2.771812.877455,5.255191,2.126847,7.8125,3.5c1.040394.541406,1.040394.541406,2.101807,1.09375C16.032915,7.857385,21.605252,11.639389,27,16c1.148555.885586,1.148555.885586,2.320313,1.789063C43.714751,29.575449,54.552836,49.568776,57,68c1.308095,16.187673,1.036906,39.342636-9.441406,52.859375C44.746246,122.917535,42.323823,122.466501,39,122c-2.5-2.0625-2.5-2.0625-4-5-.126116-6.053561,2.604395-11.471918,4.84375-17.011719C42.255135,93.756153,42.217777,88.071378,42.25,81.4375c.020625-1.034473.04125-2.068945.0625-3.134766C42.364402,67.94172,40.003363,59.044608,35.25,49.875c-.350706-.684492-.701411-1.368984-1.062744-2.074219-8.511655-16.197309-22.797618-28.000323-40.163818-33.914062C-8.252032,12.889553,-9.480121,11.961593,-11,10c-.362484-3.383189-.584336-5.867849,1-8.9375C-6.7978,-0.638669,-3.513875,-0.403225,0,0Z" transform="translate(544 257)" fill="#223957"/><path d="M0,0C15.086861,5.98954,27.578314,16.278966,34.496094,31.234375C36.868563,37.068095,38.841285,42.661981,39,49c.050273,1.194961.100547,2.389922.152344,3.621094C39.464888,63.177712,38.723395,73.7928,33,83c-3.04984,1.52492-5.642337,1.235625-9,1-1.9375-1-1.9375-1-3-3-.484105-4.760365-.326946-7.191193,1.492188-11.691406C24.262686,64.756562,24.5385,60.601435,24.5,55.75c-.004995-.831204-.00999-1.662407-.015137-2.518799C24.121461,40.315371,18.007922,30.612272,8.875,21.875c-4.382034-3.799754-9.0941-6.198711-14.371094-8.550781C-8,12,-8,12,-10,9c-.4375-2.9375-.4375-2.9375,0-6c3.448166-3.842242,5.163027-4.375082,10-3Z" transform="translate(536 282)" fill="#223957"/><path d="M0,0c.876809-.003328,1.753618-.006657,2.656998-.010086c1.847971-.005032,3.695951-.00741,5.54393-.007248c2.764565-.002167,5.528718-.020309,8.293213-.039307c42.034262-.133518,42.034262-.133518,58.072265,9.22461.99,1.32,1.98,2.64,3,4-41.91,0-83.82,0-127,0c5.916795-7.395994,12.43728-8.308975,21.4375-10.125.794707-.168867,1.589414-.337735,2.408203-.511719C-17.061618,0.769107,-8.701466,0.01187,0,0Z" transform="translate(400.434 353.832)" fill="#203a58"/><path d="M0,0c3.323744.016039,6.646264.000091,9.969971-.019043c32.177813-.029257,32.177813-.029257,41.05664,4.410156.133929,8.035715.133929,8.035715-1,12-1.812634-.144152-3.6251-.290426-5.4375-.4375-1.514004-.121816-1.514004-.121816-3.058593-.246093-1.814966-.163894-3.630226-.332324-5.438279-.560151-5.940034-.745691-11.794206-.917171-17.776565-.924224-1.007614-.003329-2.015228-.006657-3.053375-.010087-2.126247-.005038-4.252501-.007409-6.378754-.007247-3.188128-.002168-6.375899-.020304-9.563965-.039307-12.565463-.033335-24.832009.592795-37.292969,2.224609-1.171767-4.395142-1-13-1-13s25.655628-3.467343,38.973389-3.391113Z" transform="translate(407.973 275.609)" fill="#e89b5a"/><path d="M0,0C9.452089,4.559046,16.099359,12.434037,20.121094,22.003906c2.293458,7.818143,1.496154,15.68024-1.171875,23.289063C18,47,18,47,15,49c-3,.375-3,.375-6,0-1.691406-1.507812-1.691406-1.507812-3-4-.112112-2.817185-.088237-5.449562.0625-8.25C6.225074,30.384088,6.314678,25.100375,2,20c-2.46173-2.301183-4.934745-4.276111-7.71875-6.167969C-7.375,12.625,-7.375,12.625,-10,10c-.553297-3.565692-.688712-5.744114,1.0625-8.9375C-5.689468,-0.718679,-3.667666,-0.532403,0,0Z" transform="translate(530 306)" fill="#223958"/><path d="M0,0c-.046406.640664-.092812,1.281328-.140625,1.941406C-0.432784,8.099584,-0.432784,8.099584,2.0625,13.5625c2.272216,4.031351,2.156366,5.982828,1.589844,10.421875C2.878068,26.376747,1.983662,27.472973,0,29c-2.1875-.3125-2.1875-.3125-4-1-.5625-1.9375-.5625-1.9375-1-4c.33-.33.66-.66,1-1-.379435-4.097897-.69306-6.539589-3-10-.300781-2.375-.300781-2.375-.3125-5-.016758-.86625-.033516-1.7325-.050781-2.625C-7,3,-7,3,-5.730469,1.1875C-4,0,-4,0,0,0Z" transform="translate(415 305)" fill="#2e3e5a"/><path d="M0,0C3.657822,2.039939,5.669462,3.504193,8,7c0,.99,0,1.98,0,3-6.93,0-13.86,0-21,0c0-5,0-5,1.8125-7.25C-7.595562,-0.12355,-4.484565,-0.439663,0,0Z" transform="translate(417 339)" fill="#223a58"/><path d="M0,0c2.625.375,2.625.375,5,1-.061875,1.216875-.12375,2.43375-.1875,3.6875C4.791477,8.674914,5.867821,10.624049,8,14c.583933,4.671467-.304831,7.181844-3,11-1.32-.33-2.64-.66-4-1-.721131-2.575467-1.13878-5.023501-1.5-7.6875-.140375-3.150758-.140375-3.150758-1.5-4.3125-.124549-1.642304-.175685-3.290523-.1875-4.9375-.01418-.895898-.028359-1.791797-.042969-2.714844C-2,2,-2,2,0,0Z" transform="translate(425 310)" fill="#2d3d55"/><path d="M0,0c1.65.33,3.3.66,5,1-.061875,1.051875-.12375,2.10375-.1875,3.1875-.122492,3.747123-.122492,3.747123,1.6875,6.25C8.686629,14.172991,8.346819,16.699448,8,21c-.66.99-1.32,1.98-2,3-1.65-.33-3.3-.66-5-1c.061875-1.2375.12375-2.475.1875-3.75.052982-3.390831.052982-3.390831-1.6875-6.25C-2.935143,9.753143,-2.316606,6.989231,-2,3c.66-.99,1.32-1.98,2-3Z" transform="translate(396 310)" fill="#293d58"/><path d="M0,0c.33.66.66,1.32,1,2-1.214844,2.382813-1.214844,2.382813-2.9375,5.125-.565898.910078-1.131797,1.820156-1.714844,2.757813C-4.09707,10.581484,-4.541797,11.280156,-5,12c1.65-.33,3.3-.66,5-1-3.625,3-3.625,3-7,3c.559893-3.990124,1.756698-6.525505,4.0625-9.8125.547852-.790195,1.095703-1.580391,1.660156-2.394531C-0.645059,0.905449,-0.645059,0.905449,0,0Z" transform="translate(438 196)" fill="#384c66"/><path d="M0,0c1.67543.286049,3.343853.617812,5,1-.33,2.31-.66,4.62-1,7-.66,0-1.32,0-2,0C2,6.02,2,4.04,2,2c-.99.66-1.98,1.32-3,2c0-3,0-3,1-4Z" transform="translate(425 310)" fill="#394456"/><path d="M0,0c0,3.60648-.899877,4.652295-2.9375,7.5625C-5.128318,10.686802,-5.128318,10.686802,-7,14c-.66,0-1.32,0-2,0C-7.349668,8.718936,-3.906673,3.906673,0,0Z" transform="translate(390 178)" fill="#d18454"/><path d="M0,0C3,3.75,3,3.75,3,6c2.31,0,4.62,0,7,0c0,.33,0,.66,0,1-8.571429.142857-8.571429.142857-12-1c.66-1.98,1.32-3.96,2-6Z" transform="translate(435 338)" fill="#3d4b5a"/><path d="M0,0c0,.33,0,.66,0,1-1.65,0-3.3,0-5,0c0,.66,0,1.32,0,2-.99.66-1.98,1.32-3,2-.729654,2.562827-.729654,2.562827-1,5-.33,0-.66,0-1,0-.359155-6.34507-.359155-6.34507,1.0625-8.9375C-5.988313,-0.554796,-3.291324,-0.186301,0,0Z" transform="translate(530 306)" fill="#394556"/><path d="M0,0c.99.33,1.98.66,3,1-4.75,4-4.75,4-7,4c0,1.65,0,3.3,0,5-.33,0-.66,0-1,0-.3125-2.75-.3125-2.75,0-6c2.3125-2.4375,2.3125-2.4375,5-4Z" transform="translate(531 281)" fill="#434d61"/><path d="M0,0c0,.33,0,.66,0,1-1.670625.402188-1.670625.402188-3.375.8125C-7.21841,2.65809,-7.21841,2.65809,-9,6c-.66,0-1.32,0-2,0c.25-1.875.25-1.875,1-4c3.179735-2.355359,6.151246-2.174943,10-2Z" transform="translate(417 339)" fill="#4d5059"/><path d="M0,0c1.65.33,3.3.66,5,1-.33,2.31-.66,4.62-1,7-.33,0-.66,0-1,0C3,6.02,3,4.04,3,2c-1.32.33-2.64.66-4,1c.33-.99.66-1.98,1-3Z" transform="translate(396 310)" fill="#394457"/><path d="M0,0c.33,0,.66,0,1,0C3.142857,7.428571,3.142857,7.428571,4,11c-.66,0-1.32,0-2,0-2.40241-3.025257-3.055416-4.412587-2.6875-8.3125C-0.460625,1.800625,-0.23375,0.91375,0,0Z" transform="translate(401 312)" fill="#d99357"/><path d="M0,0c.66.33,1.32.66,2,1-2.853068,2.324722-5.540748,3.750826-9,5c4.75-4.875,4.75-4.875,7-6Z" transform="translate(279 315)" fill="#2e3e53"/></g></svg>
